Pierre, a young man of privilege, whose anonymously-published novel is a hit and who's about to marry his blond cousin, Lucie, abandons all when a dark-haired vagrant tells him her secret late one night in the woods: that she is Isabelle, his sister, abandoned by their father.

General
Complete name : Pola.X.1999.DVDRip.XviD-FeDePe.avi
Format : AVI
Format/Info : Audio Video Interleave
File size : 704 MiB
Duration : 2h 8mn
Overall bit rate : 764 Kbps
Writing library : VirtualDub build 13130/release

Video
ID : 0
Format : MPEG-4 Visual
Format settings, BVOP : Yes
Format settings, QPel : No
Format settings, GMC : No warppoints
Format settings, Matrix : Default (H.263)
Codec ID : DIVX
Codec ID/Info : Project Mayo
Codec ID/Hint : DivX 4
Duration : 2h 8mn
Bit rate : 691 Kbps
Width : 656 pixels
Height : 400 pixels
Display aspect ratio : 1.640
Frame rate : 25.000 fps
Color space : YUV
Chroma subsampling : 4:2:0
Bit depth : 8 bits
Scan type : Progressive
Compression mode : Lossy
Bits/(Pixel*Frame) : 0.105
Stream size : 637 MiB (90%)

Audio
ID : 1
Format : WMA
Format version : Version 2
Codec ID : 161
Codec ID/Info : Windows Media Audio
Duration : 2h 8mn
Bit rate : 64.1 Kbps
Channel(s) : 2 channels
Sampling rate : 44.1 KHz
Bit depth : 16 bits
Stream size : 59.0 MiB (8%)
Interleave, duration : 46 ms (1.16 video frame)
Interleave, preload duration : 464 ms